<svg width="646" height="105" viewBox="0 0 646 105" fill="none" xmlns="http://www.w3.org/2000/svg">
<g clip-path="url(#clip0_554_820)">
<path d="M94.0278 100H0V0H94.0278V100ZM13.9389 91.4222H25.8833V88.2056H13.9389V91.4222ZM68.15 89.1278H59.5722V90.5056H68.15V91.4222H80.0944V88.2056H68.15V89.1278ZM13.9389 69.9833H80.0944V14.0889H13.9389V69.9833Z" fill="currentColor"/>
<path d="M168.314 87.1002V89.0002H142.314V87.1002C150.414 86.5002 150.714 86.3002 150.714 75.8002V24.3002C150.714 17.8002 148.314 17.1002 141.314 17.1002V15.2002C149.114 15.2002 153.714 12.9002 159.114 8.2002L159.914 8.7002V75.8002C159.914 86.3002 161.214 86.4002 168.314 87.1002ZM192.972 34.0002C207.172 34.0002 214.972 44.1002 214.972 60.6002C214.972 78.3002 205.672 90.0002 191.672 90.0002C177.172 90.0002 169.672 79.9002 169.672 63.5002C169.672 45.7002 178.772 34.0002 192.972 34.0002ZM193.372 87.4002C199.772 87.4002 204.772 80.9002 204.772 65.5002C204.772 50.7002 200.772 36.6002 190.972 36.6002C184.272 36.6002 180.172 43.1002 180.172 58.3002C180.172 73.5002 183.972 87.4002 193.372 87.4002ZM240.595 36.9002C233.495 36.9002 229.595 45.5002 229.595 57.2002C229.595 71.4002 234.995 84.3002 244.695 84.3002C249.295 84.3002 254.695 81.2002 258.895 76.8002L260.095 78.4002C255.795 83.6002 249.795 90.0002 240.395 90.0002C229.095 90.0002 219.795 80.8002 219.795 63.3002C219.795 46.7002 227.595 34.0002 244.395 34.0002C253.795 34.0002 258.095 37.8002 258.095 41.5002C258.095 44.2002 256.195 47.1002 252.795 47.1002C246.295 47.1002 248.295 36.9002 240.595 36.9002ZM302.619 89.0002H285.919V83.2002C281.519 86.6002 276.319 90.0002 270.719 90.0002C263.019 90.0002 260.119 83.9002 260.119 78.8002C260.119 72.7002 264.019 69.7002 274.819 66.1002L285.919 62.4002V51.6002C285.919 41.3002 283.619 36.8002 278.119 36.8002C268.119 36.8002 275.719 50.5002 266.719 50.5002C262.919 50.5002 261.619 48.2002 261.619 46.1002C261.619 40.2002 272.419 34.0002 281.819 34.0002C291.219 34.0002 295.119 39.3002 295.119 48.9002V75.8002C295.119 86.3002 295.519 86.4002 302.619 87.1002V89.0002ZM275.519 84.7002C279.219 84.7002 285.119 82.3002 285.919 75.8002V65.9002L278.419 68.3002C271.519 70.6002 269.519 73.7002 269.519 77.7002C269.519 81.2002 271.319 84.7002 275.519 84.7002ZM326.822 87.1002V89.0002H300.822V87.1002C308.922 86.5002 309.222 86.3002 309.222 75.8002V24.3002C309.222 17.8002 306.822 17.1002 299.822 17.1002V15.2002C307.622 15.2002 312.222 12.9002 317.622 8.2002L318.422 8.7002V75.8002C318.422 86.3002 319.722 86.4002 326.822 87.1002ZM349.98 87.1002V89.0002H324.88V87.1002C332.98 86.5002 333.28 86.3002 333.28 75.8002V24.3002C333.28 17.8002 330.88 17.1002 323.88 17.1002V15.2002C331.68 15.2002 336.28 12.9002 341.68 8.2002L342.48 8.7002V42.7002C350.98 36.5002 354.38 34.0002 359.98 34.0002C368.18 34.0002 371.68 39.5002 371.68 50.9002V75.8002C371.68 86.3002 372.08 86.4002 380.18 87.1002V89.0002H355.08V87.1002C362.18 86.5002 362.48 86.3002 362.48 75.8002V55.6002C362.48 42.6002 357.88 39.6002 353.58 39.6002C348.38 39.6002 342.48 45.0002 342.48 54.3002V75.8002C342.48 86.3002 342.88 86.4002 349.98 87.1002ZM404.534 34.0002C418.734 34.0002 426.534 44.1002 426.534 60.6002C426.534 78.3002 417.234 90.0002 403.234 90.0002C388.734 90.0002 381.234 79.9002 381.234 63.5002C381.234 45.7002 390.334 34.0002 404.534 34.0002ZM404.934 87.4002C411.334 87.4002 416.334 80.9002 416.334 65.5002C416.334 50.7002 412.334 36.6002 402.534 36.6002C395.834 36.6002 391.734 43.1002 391.734 58.3002C391.734 73.5002 395.534 87.4002 404.934 87.4002ZM447.657 90.0002C443.757 90.0002 440.757 88.5002 438.657 88.5002C437.357 88.5002 436.457 89.1002 436.057 91.0002H434.057L432.057 71.5002L434.357 71.3002C437.157 80.4002 439.757 87.4002 446.957 87.4002C451.457 87.4002 455.857 84.8002 455.857 78.6002C455.857 65.0002 432.657 64.1002 432.657 48.2002C432.657 40.7002 437.657 34.0002 448.357 34.0002C451.957 34.0002 453.757 35.1002 455.757 35.1002C456.957 35.1002 457.657 34.3002 458.257 32.0002H460.057L461.557 49.5002L459.457 49.7002C456.657 41.3002 453.557 36.6002 448.157 36.6002C444.057 36.6002 440.357 39.4002 440.357 44.2002C440.357 56.0002 463.457 58.2002 463.457 74.6002C463.457 84.4002 454.757 90.0002 447.657 90.0002ZM493.803 82.3002L494.903 84.1002C492.203 87.3002 488.203 90.0002 482.903 90.0002C476.603 90.0002 472.003 86.1002 472.003 79.1002V39.1002L465.903 38.1002V36.0002C473.403 36.0002 478.503 31.3002 479.303 24.0002H481.203V34.6002L493.403 36.0002V38.1002L481.203 39.3002V77.7002C481.203 83.4002 483.103 85.6002 486.703 85.6002C489.703 85.6002 492.003 84.1002 493.803 82.3002ZM537.087 87.1002V89.0002H510.487V87.1002C518.787 86.5002 518.887 86.4002 518.887 77.8002V26.2002C518.887 17.6002 518.687 17.6002 510.387 16.9002V15.0002H536.987V16.9002C528.687 17.5002 528.587 17.6002 528.587 26.2002V53.9002H559.387V26.2002C559.387 17.6002 559.187 17.6002 550.887 16.9002V15.0002H577.487V16.9002C569.187 17.5002 569.087 17.6002 569.087 26.2002V77.8002C569.087 86.4002 569.287 86.4002 577.587 87.1002V89.0002H550.987V87.1002C559.287 86.5002 559.387 86.4002 559.387 77.8002V56.7002H528.587V77.8002C528.587 86.4002 528.787 86.4002 537.087 87.1002ZM632.402 104.3C620.902 104.3 611.502 92.2002 604.802 89.9002C588.502 88.5002 580.002 74.0002 580.002 51.0002C580.002 28.7002 591.402 14.0002 609.102 14.0002C626.802 14.0002 636.502 28.8002 636.502 53.1002C636.502 73.2002 627.002 87.1002 612.202 89.6002C620.002 93.7002 628.902 97.3002 639.802 97.3002C641.602 97.3002 643.502 97.2002 645.402 97.0002V98.1002C644.502 101.8 638.202 104.3 632.402 104.3ZM609.802 86.5002C619.002 86.5002 626.302 78.6002 626.302 59.8002C626.302 38.2002 620.402 17.5002 606.102 17.5002C596.602 17.5002 590.502 25.5002 590.502 44.0002C590.502 66.2002 596.202 86.5002 609.802 86.5002Z" fill="currentColor"/>
</g>
<defs>
<clipPath id="clip0_554_820">
<rect width="646" height="105" fill="white"/>
</clipPath>
</defs>
</svg>
